<svg xmlns="http://www.w3.org/2000/svg" xmlns:xlink="http://www.w3.org/1999/xlink" width="600" zoomAndPan="magnify" viewBox="0 0 450 119.999999" height="160" preserveAspectRatio="xMidYMid meet" version="1.0"><defs><g/><clipPath id="id1"><path d="M 0 0 L 448.5 0 L 448.5 102 L 0 102 Z M 0 0 " clip-rule="nonzero"/></clipPath><clipPath id="id2"><path d="M 361 80.246094 L 400 80.246094 L 400 119.996094 L 361 119.996094 Z M 361 80.246094 " clip-rule="nonzero"/></clipPath><clipPath id="id3"><path d="M 360.617188 80.246094 L 400.367188 80.246094 L 400.367188 119.996094 L 360.617188 119.996094 Z M 360.617188 80.246094 " clip-rule="nonzero"/></clipPath><clipPath id="id4"><path d="M 369.136719 88.761719 L 391.636719 88.761719 L 391.636719 111.261719 L 369.136719 111.261719 Z M 369.136719 88.761719 " clip-rule="nonzero"/></clipPath><clipPath id="id5"><path d="M 313 80.246094 L 352.722656 80.246094 L 352.722656 119.996094 L 313 119.996094 Z M 313 80.246094 " clip-rule="nonzero"/></clipPath><clipPath id="id6"><path d="M 312.972656 80.246094 L 352.722656 80.246094 L 352.722656 119.996094 L 312.972656 119.996094 Z M 312.972656 80.246094 " clip-rule="nonzero"/></clipPath><clipPath id="id7"><path d="M 321.488281 98.011719 L 343.988281 98.011719 L 343.988281 102.511719 L 321.488281 102.511719 Z M 321.488281 98.011719 " clip-rule="nonzero"/></clipPath></defs><g clip-path="url(#id1)"><path fill="#333333" d="M 50.964844 0.046875 L 397.535156 0.046875 C 399.203125 0.046875 400.867188 0.128906 402.53125 0.292969 C 404.191406 0.457031 405.839844 0.699219 407.476562 1.027344 C 409.113281 1.351562 410.730469 1.757812 412.328125 2.242188 C 413.925781 2.726562 415.496094 3.285156 417.039062 3.925781 C 418.578125 4.5625 420.085938 5.277344 421.558594 6.0625 C 423.03125 6.851562 424.460938 7.707031 425.847656 8.632812 C 427.238281 9.5625 428.574219 10.554688 429.867188 11.613281 C 431.15625 12.671875 432.390625 13.789062 433.574219 14.96875 C 434.753906 16.152344 435.871094 17.386719 436.929688 18.675781 C 437.988281 19.964844 438.984375 21.304688 439.910156 22.691406 C 440.839844 24.078125 441.695312 25.507812 442.480469 26.980469 C 443.269531 28.453125 443.980469 29.960938 444.621094 31.5 C 445.257812 33.042969 445.820312 34.613281 446.304688 36.210938 C 446.789062 37.804688 447.195312 39.421875 447.519531 41.058594 C 447.847656 42.695312 448.089844 44.34375 448.253906 46.003906 C 448.417969 47.667969 448.5 49.332031 448.5 51 C 448.5 52.667969 448.417969 54.332031 448.253906 55.996094 C 448.089844 57.65625 447.847656 59.304688 447.519531 60.941406 C 447.195312 62.578125 446.789062 64.195312 446.304688 65.789062 C 445.820312 67.386719 445.257812 68.957031 444.621094 70.5 C 443.980469 72.039062 443.269531 73.546875 442.480469 75.019531 C 441.695312 76.492188 440.839844 77.921875 439.910156 79.308594 C 438.984375 80.695312 437.988281 82.035156 436.929688 83.324219 C 435.871094 84.613281 434.753906 85.847656 433.574219 87.027344 C 432.390625 88.210938 431.15625 89.328125 429.867188 90.386719 C 428.574219 91.445312 427.238281 92.4375 425.847656 93.367188 C 424.460938 94.292969 423.03125 95.148438 421.558594 95.9375 C 420.085938 96.722656 418.578125 97.4375 417.039062 98.074219 C 415.496094 98.714844 413.925781 99.273438 412.328125 99.757812 C 410.730469 100.242188 409.113281 100.648438 407.476562 100.972656 C 405.839844 101.300781 404.191406 101.542969 402.53125 101.707031 C 400.867188 101.871094 399.203125 101.953125 397.535156 101.953125 L 50.964844 101.953125 C 49.296875 101.953125 47.632812 101.871094 45.96875 101.707031 C 44.308594 101.542969 42.660156 101.300781 41.023438 100.972656 C 39.386719 100.648438 37.769531 100.242188 36.171875 99.757812 C 34.574219 99.273438 33.003906 98.714844 31.460938 98.074219 C 29.921875 97.4375 28.414062 96.722656 26.941406 95.9375 C 25.46875 95.148438 24.039062 94.292969 22.652344 93.367188 C 21.261719 92.4375 19.921875 91.445312 18.632812 90.386719 C 17.34375 89.328125 16.109375 88.210938 14.925781 87.027344 C 13.746094 85.847656 12.628906 84.613281 11.570312 83.324219 C 10.511719 82.035156 9.515625 80.695312 8.589844 79.308594 C 7.660156 77.921875 6.804688 76.492188 6.019531 75.019531 C 5.230469 73.546875 4.519531 72.039062 3.878906 70.5 C 3.242188 68.957031 2.679688 67.386719 2.195312 65.789062 C 1.710938 64.195312 1.304688 62.578125 0.980469 60.941406 C 0.652344 59.304688 0.410156 57.65625 0.246094 55.996094 C 0.0820312 54.332031 0 52.667969 0 51 C 0 49.332031 0.0820312 47.667969 0.246094 46.003906 C 0.410156 44.34375 0.652344 42.695312 0.980469 41.058594 C 1.304688 39.421875 1.710938 37.804688 2.195312 36.210938 C 2.679688 34.613281 3.242188 33.042969 3.878906 31.5 C 4.519531 29.960938 5.230469 28.453125 6.019531 26.980469 C 6.804688 25.507812 7.660156 24.078125 8.589844 22.691406 C 9.515625 21.304688 10.511719 19.964844 11.570312 18.675781 C 12.628906 17.386719 13.746094 16.152344 14.925781 14.96875 C 16.109375 13.789062 17.34375 12.671875 18.632812 11.613281 C 19.921875 10.554688 21.261719 9.5625 22.652344 8.632812 C 24.039062 7.707031 25.46875 6.851562 26.941406 6.0625 C 28.414062 5.277344 29.921875 4.5625 31.460938 3.925781 C 33.003906 3.285156 34.574219 2.726562 36.171875 2.242188 C 37.769531 1.757812 39.386719 1.351562 41.023438 1.027344 C 42.660156 0.699219 44.308594 0.457031 45.96875 0.292969 C 47.632812 0.128906 49.296875 0.046875 50.964844 0.046875 Z M 50.964844 0.046875 " fill-opacity="1" fill-rule="nonzero"/></g><g clip-path="url(#id2)"><path fill="#ffffff" d="M 363.203125 80.90625 L 397.785156 80.90625 C 398.839844 80.90625 399.710938 81.773438 399.710938 82.828125 L 399.710938 117.410156 C 399.710938 118.464844 398.839844 119.335938 397.785156 119.335938 L 363.230469 119.335938 C 362.175781 119.335938 361.304688 118.464844 361.304688 117.410156 L 361.304688 82.855469 C 361.277344 81.773438 362.148438 80.90625 363.203125 80.90625 " fill-opacity="1" fill-rule="nonzero"/></g><g clip-path="url(#id3)"><path fill="#333333" d="M 363.203125 118.753906 C 362.464844 118.753906 361.859375 118.148438 361.859375 117.410156 L 361.859375 82.828125 C 361.859375 82.089844 362.464844 81.484375 363.203125 81.484375 L 397.785156 81.484375 C 398.523438 81.484375 399.128906 82.089844 399.128906 82.828125 L 399.128906 117.410156 C 399.128906 118.148438 398.523438 118.753906 397.785156 118.753906 L 363.203125 118.753906 M 363.203125 119.996094 L 397.785156 119.996094 C 399.207031 119.996094 400.367188 118.835938 400.367188 117.410156 L 400.367188 82.828125 C 400.367188 81.40625 399.207031 80.246094 397.785156 80.246094 L 363.203125 80.246094 C 361.78125 80.246094 360.617188 81.40625 360.617188 82.828125 L 360.617188 117.410156 C 360.617188 118.835938 361.78125 119.996094 363.203125 119.996094 " fill-opacity="1" fill-rule="nonzero"/></g><g clip-path="url(#id4)"><path fill="#737373" d="M 377.578125 88.761719 C 377.578125 88.761719 377.578125 88.761719 383.238281 88.761719 C 383.238281 88.761719 383.238281 88.761719 383.238281 97.117188 C 383.238281 97.117188 383.238281 97.117188 391.636719 97.117188 C 391.636719 97.117188 391.636719 97.117188 391.636719 102.863281 C 391.636719 102.863281 391.636719 102.863281 383.238281 102.863281 C 383.238281 102.863281 383.238281 102.863281 383.238281 111.261719 C 383.238281 111.261719 383.238281 111.261719 377.578125 111.261719 C 377.578125 111.261719 377.578125 111.261719 377.578125 102.863281 C 377.578125 102.863281 377.578125 102.863281 369.136719 102.863281 C 369.136719 102.863281 369.136719 102.863281 369.136719 97.117188 C 369.136719 97.117188 369.136719 97.117188 377.578125 97.117188 C 377.578125 97.117188 377.578125 97.117188 377.578125 88.761719 Z M 377.578125 88.761719 " fill-opacity="1" fill-rule="nonzero"/></g><g clip-path="url(#id5)"><path fill="#ffffff" d="M 315.554688 80.90625 L 350.136719 80.90625 C 351.191406 80.90625 352.0625 81.773438 352.0625 82.828125 L 352.0625 117.410156 C 352.0625 118.464844 351.191406 119.335938 350.136719 119.335938 L 315.582031 119.335938 C 314.527344 119.335938 313.65625 118.464844 313.65625 117.410156 L 313.65625 82.855469 C 313.632812 81.773438 314.5 80.90625 315.554688 80.90625 " fill-opacity="1" fill-rule="nonzero"/></g><g clip-path="url(#id6)"><path fill="#333333" d="M 315.554688 118.753906 C 314.816406 118.753906 314.210938 118.148438 314.210938 117.410156 L 314.210938 82.828125 C 314.210938 82.089844 314.816406 81.484375 315.554688 81.484375 L 350.136719 81.484375 C 350.875 81.484375 351.480469 82.089844 351.480469 82.828125 L 351.480469 117.410156 C 351.480469 118.148438 350.875 118.753906 350.136719 118.753906 L 315.554688 118.753906 M 315.554688 119.996094 L 350.136719 119.996094 C 351.5625 119.996094 352.722656 118.835938 352.722656 117.410156 L 352.722656 82.828125 C 352.722656 81.40625 351.5625 80.246094 350.136719 80.246094 L 315.554688 80.246094 C 314.132812 80.246094 312.972656 81.40625 312.972656 82.828125 L 312.972656 117.410156 C 312.972656 118.835938 314.132812 119.996094 315.554688 119.996094 " fill-opacity="1" fill-rule="nonzero"/></g><g clip-path="url(#id7)"><path fill="#737373" d="M 321.546875 98.027344 L 343.933594 98.027344 L 343.933594 102.515625 L 321.546875 102.515625 L 321.546875 98.027344 " fill-opacity="1" fill-rule="nonzero"/></g><g fill="#5ce1e6" fill-opacity="1"><g transform="translate(23.809549, 67.289719)"><g><path d="M 16.28125 -0.734375 L 16.28125 -31.921875 L 5.546875 -31.921875 C 5.054688 -31.921875 4.8125 -32.164062 4.8125 -32.65625 L 4.8125 -35.171875 C 4.8125 -35.648438 5.054688 -35.890625 5.546875 -35.890625 L 30.984375 -35.890625 C 31.460938 -35.890625 31.703125 -35.648438 31.703125 -35.171875 L 31.703125 -32.65625 C 31.703125 -32.164062 31.460938 -31.921875 30.984375 -31.921875 L 20.25 -31.921875 L 20.25 -0.734375 C 20.25 -0.523438 20.171875 -0.347656 20.015625 -0.203125 C 19.859375 -0.0664062 19.691406 0 19.515625 0 L 17 0 C 16.519531 0 16.28125 -0.242188 16.28125 -0.734375 Z M 16.28125 -0.734375 "/></g></g></g><g fill="#5ce1e6" fill-opacity="1"><g transform="translate(60.279811, 67.289719)"><g><path d="M 27.734375 -0.734375 L 27.734375 -15.953125 L 8.734375 -15.953125 L 8.734375 -0.734375 C 8.734375 -0.242188 8.488281 0 8 0 L 5.546875 0 C 5.054688 0 4.8125 -0.242188 4.8125 -0.734375 L 4.8125 -35.171875 C 4.8125 -35.648438 5.054688 -35.890625 5.546875 -35.890625 L 8 -35.890625 C 8.488281 -35.890625 8.734375 -35.648438 8.734375 -35.171875 L 8.734375 -19.9375 L 27.734375 -19.9375 L 27.734375 -35.171875 C 27.734375 -35.648438 27.976562 -35.890625 28.46875 -35.890625 L 30.984375 -35.890625 C 31.460938 -35.890625 31.703125 -35.648438 31.703125 -35.171875 L 31.703125 -0.734375 C 31.703125 -0.242188 31.460938 0 30.984375 0 L 28.46875 0 C 27.976562 0 27.734375 -0.242188 27.734375 -0.734375 Z M 27.734375 -0.734375 "/></g></g></g><g fill="#5ce1e6" fill-opacity="1"><g transform="translate(96.69776, 67.289719)"><g><path d="M 5.59375 -0.734375 L 5.59375 -35.171875 C 5.59375 -35.648438 5.835938 -35.890625 6.328125 -35.890625 L 30.71875 -35.890625 C 31.207031 -35.890625 31.453125 -35.648438 31.453125 -35.171875 L 31.453125 -32.65625 C 31.453125 -32.164062 31.207031 -31.921875 30.71875 -31.921875 L 9.53125 -31.921875 L 9.53125 -19.9375 L 27.890625 -19.9375 C 28.066406 -19.9375 28.234375 -19.859375 28.390625 -19.703125 C 28.546875 -19.546875 28.625 -19.378906 28.625 -19.203125 L 28.625 -16.6875 C 28.625 -16.476562 28.546875 -16.300781 28.390625 -16.15625 C 28.234375 -16.019531 28.066406 -15.953125 27.890625 -15.953125 L 9.53125 -15.953125 L 9.53125 -3.984375 L 30.71875 -3.984375 C 30.925781 -3.984375 31.097656 -3.898438 31.234375 -3.734375 C 31.378906 -3.578125 31.453125 -3.414062 31.453125 -3.25 L 31.453125 -0.734375 C 31.453125 -0.242188 31.207031 0 30.71875 0 L 6.328125 0 C 5.835938 0 5.59375 -0.242188 5.59375 -0.734375 Z M 5.59375 -0.734375 "/></g></g></g><g fill="#5ce1e6" fill-opacity="1"><g transform="translate(133.115708, 67.289719)"><g/></g></g><g fill="#5ce1e6" fill-opacity="1"><g transform="translate(169.533657, 67.289719)"><g><path d="M 31.703125 -25.84375 C 31.703125 -25.363281 31.460938 -25.125 30.984375 -25.125 L 28.46875 -25.125 C 27.976562 -25.125 27.734375 -25.363281 27.734375 -25.84375 L 27.734375 -28.3125 C 27.703125 -29.320312 27.335938 -30.175781 26.640625 -30.875 C 25.941406 -31.570312 25.085938 -31.921875 24.078125 -31.921875 L 12.40625 -31.921875 C 11.394531 -31.921875 10.53125 -31.5625 9.8125 -30.84375 C 9.09375 -30.132812 8.734375 -29.269531 8.734375 -28.25 L 8.734375 -7.640625 C 8.734375 -6.628906 9.09375 -5.765625 9.8125 -5.046875 C 10.53125 -4.335938 11.394531 -3.984375 12.40625 -3.984375 L 24.078125 -3.984375 C 25.085938 -3.984375 25.941406 -4.320312 26.640625 -5 C 27.335938 -5.675781 27.703125 -6.519531 27.734375 -7.53125 L 27.734375 -10.046875 C 27.734375 -10.222656 27.800781 -10.390625 27.9375 -10.546875 C 28.082031 -10.703125 28.257812 -10.78125 28.46875 -10.78125 L 30.984375 -10.78125 C 31.191406 -10.78125 31.363281 -10.703125 31.5 -10.546875 C 31.632812 -10.390625 31.703125 -10.222656 31.703125 -10.046875 L 31.703125 -7.53125 C 31.703125 -6.488281 31.492188 -5.515625 31.078125 -4.609375 C 30.660156 -3.703125 30.113281 -2.90625 29.4375 -2.21875 C 28.757812 -1.539062 27.957031 -1 27.03125 -0.59375 C 26.101562 -0.195312 25.117188 0 24.078125 0 L 12.40625 0 C 11.351562 0 10.363281 -0.195312 9.4375 -0.59375 C 8.519531 -1 7.71875 -1.539062 7.03125 -2.21875 C 6.351562 -2.90625 5.8125 -3.71875 5.40625 -4.65625 C 5.007812 -5.59375 4.8125 -6.585938 4.8125 -7.640625 L 4.8125 -28.25 C 4.8125 -29.300781 5.007812 -30.285156 5.40625 -31.203125 C 5.8125 -32.128906 6.351562 -32.941406 7.03125 -33.640625 C 7.71875 -34.335938 8.519531 -34.882812 9.4375 -35.28125 C 10.363281 -35.6875 11.351562 -35.890625 12.40625 -35.890625 L 24.078125 -35.890625 C 25.117188 -35.890625 26.101562 -35.6875 27.03125 -35.28125 C 27.957031 -34.882812 28.757812 -34.347656 29.4375 -33.671875 C 30.113281 -32.992188 30.660156 -32.191406 31.078125 -31.265625 C 31.492188 -30.335938 31.703125 -29.351562 31.703125 -28.3125 Z M 31.703125 -25.84375 "/></g></g></g><g fill="#5ce1e6" fill-opacity="1"><g transform="translate(206.003919, 67.289719)"><g><path d="M 12.40625 0 C 11.351562 0 10.363281 -0.195312 9.4375 -0.59375 C 8.519531 -1 7.71875 -1.539062 7.03125 -2.21875 C 6.351562 -2.90625 5.8125 -3.71875 5.40625 -4.65625 C 5.007812 -5.59375 4.8125 -6.585938 4.8125 -7.640625 L 4.8125 -28.25 C 4.8125 -29.300781 5.007812 -30.285156 5.40625 -31.203125 C 5.8125 -32.128906 6.351562 -32.941406 7.03125 -33.640625 C 7.71875 -34.335938 8.519531 -34.882812 9.4375 -35.28125 C 10.363281 -35.6875 11.351562 -35.890625 12.40625 -35.890625 L 24.078125 -35.890625 C 25.117188 -35.890625 26.101562 -35.6875 27.03125 -35.28125 C 27.957031 -34.882812 28.765625 -34.335938 29.453125 -33.640625 C 30.148438 -32.941406 30.695312 -32.128906 31.09375 -31.203125 C 31.5 -30.285156 31.703125 -29.300781 31.703125 -28.25 L 31.703125 -7.640625 C 31.703125 -6.585938 31.5 -5.59375 31.09375 -4.65625 C 30.695312 -3.71875 30.148438 -2.90625 29.453125 -2.21875 C 28.765625 -1.539062 27.957031 -1 27.03125 -0.59375 C 26.101562 -0.195312 25.117188 0 24.078125 0 Z M 12.40625 -31.921875 C 11.394531 -31.921875 10.53125 -31.5625 9.8125 -30.84375 C 9.09375 -30.132812 8.734375 -29.269531 8.734375 -28.25 L 8.734375 -7.640625 C 8.734375 -6.628906 9.09375 -5.765625 9.8125 -5.046875 C 10.53125 -4.335938 11.394531 -3.984375 12.40625 -3.984375 L 24.078125 -3.984375 C 25.085938 -3.984375 25.945312 -4.335938 26.65625 -5.046875 C 27.375 -5.765625 27.734375 -6.628906 27.734375 -7.640625 L 27.734375 -28.25 C 27.734375 -29.269531 27.375 -30.132812 26.65625 -30.84375 C 25.945312 -31.5625 25.085938 -31.921875 24.078125 -31.921875 Z M 12.40625 -31.921875 "/></g></g></g><g fill="#5ce1e6" fill-opacity="1"><g transform="translate(242.474181, 67.289719)"><g><path d="M 4.765625 -7.640625 L 4.765625 -35.171875 C 4.765625 -35.378906 4.84375 -35.550781 5 -35.6875 C 5.15625 -35.820312 5.320312 -35.890625 5.5 -35.890625 L 8 -35.890625 C 8.488281 -35.890625 8.734375 -35.648438 8.734375 -35.171875 L 8.734375 -7.640625 C 8.734375 -6.628906 9.09375 -5.765625 9.8125 -5.046875 C 10.53125 -4.335938 11.394531 -3.984375 12.40625 -3.984375 L 24.078125 -3.984375 C 25.085938 -3.984375 25.945312 -4.335938 26.65625 -5.046875 C 27.375 -5.765625 27.734375 -6.628906 27.734375 -7.640625 L 27.734375 -35.171875 C 27.734375 -35.648438 27.976562 -35.890625 28.46875 -35.890625 L 30.984375 -35.890625 C 31.460938 -35.890625 31.703125 -35.648438 31.703125 -35.171875 L 31.703125 -7.640625 C 31.703125 -6.585938 31.5 -5.59375 31.09375 -4.65625 C 30.695312 -3.71875 30.148438 -2.90625 29.453125 -2.21875 C 28.765625 -1.539062 27.957031 -1 27.03125 -0.59375 C 26.101562 -0.195312 25.117188 0 24.078125 0 L 12.40625 0 C 11.351562 0 10.363281 -0.195312 9.4375 -0.59375 C 8.519531 -1 7.710938 -1.539062 7.015625 -2.21875 C 6.316406 -2.90625 5.765625 -3.71875 5.359375 -4.65625 C 4.960938 -5.59375 4.765625 -6.585938 4.765625 -7.640625 Z M 4.765625 -7.640625 "/></g></g></g><g fill="#5ce1e6" fill-opacity="1"><g transform="translate(278.944443, 67.289719)"><g><path d="M 27.734375 -0.734375 L 27.734375 -15.75 L 8.734375 -31.453125 L 8.734375 -0.734375 C 8.734375 -0.242188 8.488281 0 8 0 L 5.5 0 C 5.320312 0 5.15625 -0.0664062 5 -0.203125 C 4.84375 -0.347656 4.765625 -0.523438 4.765625 -0.734375 L 4.765625 -35.171875 C 4.765625 -35.378906 4.84375 -35.550781 5 -35.6875 C 5.15625 -35.820312 5.320312 -35.890625 5.5 -35.890625 L 9 -35.890625 C 9.488281 -35.890625 9.925781 -35.734375 10.3125 -35.421875 L 27.734375 -21.03125 L 27.734375 -35.171875 C 27.734375 -35.648438 27.976562 -35.890625 28.46875 -35.890625 L 30.984375 -35.890625 C 31.460938 -35.890625 31.703125 -35.648438 31.703125 -35.171875 L 31.703125 -0.734375 C 31.703125 -0.242188 31.460938 0 30.984375 0 L 28.46875 0 C 27.976562 0 27.734375 -0.242188 27.734375 -0.734375 Z M 27.734375 -0.734375 "/></g></g></g><g fill="#5ce1e6" fill-opacity="1"><g transform="translate(315.414687, 67.289719)"><g><path d="M 16.28125 -0.734375 L 16.28125 -31.921875 L 5.546875 -31.921875 C 5.054688 -31.921875 4.8125 -32.164062 4.8125 -32.65625 L 4.8125 -35.171875 C 4.8125 -35.648438 5.054688 -35.890625 5.546875 -35.890625 L 30.984375 -35.890625 C 31.460938 -35.890625 31.703125 -35.648438 31.703125 -35.171875 L 31.703125 -32.65625 C 31.703125 -32.164062 31.460938 -31.921875 30.984375 -31.921875 L 20.25 -31.921875 L 20.25 -0.734375 C 20.25 -0.523438 20.171875 -0.347656 20.015625 -0.203125 C 19.859375 -0.0664062 19.691406 0 19.515625 0 L 17 0 C 16.519531 0 16.28125 -0.242188 16.28125 -0.734375 Z M 16.28125 -0.734375 "/></g></g></g><g fill="#5ce1e6" fill-opacity="1"><g transform="translate(351.884949, 67.289719)"><g><path d="M 5.59375 -0.734375 L 5.59375 -35.171875 C 5.59375 -35.648438 5.835938 -35.890625 6.328125 -35.890625 L 30.71875 -35.890625 C 31.207031 -35.890625 31.453125 -35.648438 31.453125 -35.171875 L 31.453125 -32.65625 C 31.453125 -32.164062 31.207031 -31.921875 30.71875 -31.921875 L 9.53125 -31.921875 L 9.53125 -19.9375 L 27.890625 -19.9375 C 28.066406 -19.9375 28.234375 -19.859375 28.390625 -19.703125 C 28.546875 -19.546875 28.625 -19.378906 28.625 -19.203125 L 28.625 -16.6875 C 28.625 -16.476562 28.546875 -16.300781 28.390625 -16.15625 C 28.234375 -16.019531 28.066406 -15.953125 27.890625 -15.953125 L 9.53125 -15.953125 L 9.53125 -3.984375 L 30.71875 -3.984375 C 30.925781 -3.984375 31.097656 -3.898438 31.234375 -3.734375 C 31.378906 -3.578125 31.453125 -3.414062 31.453125 -3.25 L 31.453125 -0.734375 C 31.453125 -0.242188 31.207031 0 30.71875 0 L 6.328125 0 C 5.835938 0 5.59375 -0.242188 5.59375 -0.734375 Z M 5.59375 -0.734375 "/></g></g></g><g fill="#5ce1e6" fill-opacity="1"><g transform="translate(388.302915, 67.289719)"><g><path d="M 26.734375 -0.6875 L 19.9375 -15.953125 L 8.734375 -15.953125 L 8.734375 -0.734375 C 8.734375 -0.242188 8.488281 0 8 0 L 5.546875 0 C 5.054688 0 4.8125 -0.242188 4.8125 -0.734375 L 4.8125 -35.171875 C 4.8125 -35.648438 5.054688 -35.890625 5.546875 -35.890625 L 24.078125 -35.890625 C 25.117188 -35.890625 26.101562 -35.6875 27.03125 -35.28125 C 27.957031 -34.882812 28.765625 -34.335938 29.453125 -33.640625 C 30.148438 -32.941406 30.695312 -32.128906 31.09375 -31.203125 C 31.5 -30.285156 31.703125 -29.300781 31.703125 -28.25 L 31.703125 -23.59375 C 31.703125 -21.882812 31.1875 -20.359375 30.15625 -19.015625 C 29.132812 -17.671875 27.800781 -16.757812 26.15625 -16.28125 L 24.390625 -15.75 L 31.078125 -0.6875 C 31.179688 -0.507812 31.191406 -0.347656 31.109375 -0.203125 C 31.023438 -0.0664062 30.878906 0 30.671875 0 L 27.78125 0 C 27.570312 0 27.363281 -0.0664062 27.15625 -0.203125 C 26.945312 -0.347656 26.804688 -0.507812 26.734375 -0.6875 Z M 8.734375 -19.9375 L 24.078125 -19.9375 C 25.085938 -19.9375 25.945312 -20.289062 26.65625 -21 C 27.375 -21.71875 27.734375 -22.582031 27.734375 -23.59375 L 27.734375 -28.25 C 27.734375 -29.269531 27.375 -30.132812 26.65625 -30.84375 C 25.945312 -31.5625 25.085938 -31.921875 24.078125 -31.921875 L 8.734375 -31.921875 Z M 8.734375 -19.9375 "/></g></g></g></svg>