<svg xmlns="http://www.w3.org/2000/svg" xmlns:xlink="http://www.w3.org/1999/xlink" width="500" zoomAndPan="magnify" viewBox="0 0 375 374.999991" height="500" preserveAspectRatio="xMidYMid meet" version="1.0"><defs><g/><clipPath id="id1"><path d="M 37.5 153.375 L 337.5 153.375 L 337.5 221.625 L 37.5 221.625 Z M 37.5 153.375 " clip-rule="nonzero"/></clipPath><clipPath id="id2"><path d="M 279 207.371094 L 305 207.371094 L 305 233.621094 L 279 233.621094 Z M 279 207.371094 " clip-rule="nonzero"/></clipPath><clipPath id="id3"><path d="M 278.996094 207.371094 L 305.246094 207.371094 L 305.246094 233.621094 L 278.996094 233.621094 Z M 278.996094 207.371094 " clip-rule="nonzero"/></clipPath><clipPath id="id4"><path d="M 284.410156 212.785156 L 299.410156 212.785156 L 299.410156 227.785156 L 284.410156 227.785156 Z M 284.410156 212.785156 " clip-rule="nonzero"/></clipPath><clipPath id="id5"><path d="M 247.132812 207.371094 L 273 207.371094 L 273 233.621094 L 247.132812 233.621094 Z M 247.132812 207.371094 " clip-rule="nonzero"/></clipPath><clipPath id="id6"><path d="M 247.132812 207.371094 L 273.382812 207.371094 L 273.382812 233.621094 L 247.132812 233.621094 Z M 247.132812 207.371094 " clip-rule="nonzero"/></clipPath><clipPath id="id7"><path d="M 252.546875 218.921875 L 267.546875 218.921875 L 267.546875 221.921875 L 252.546875 221.921875 Z M 252.546875 218.921875 " clip-rule="nonzero"/></clipPath></defs><g clip-path="url(#id1)"><path fill="#333333" d="M 71.589844 153.410156 L 303.410156 153.410156 C 304.527344 153.410156 305.640625 153.464844 306.75 153.574219 C 307.863281 153.683594 308.964844 153.847656 310.058594 154.0625 C 311.15625 154.28125 312.238281 154.554688 313.304688 154.878906 C 314.375 155.199219 315.421875 155.578125 316.453125 156.003906 C 317.488281 156.429688 318.496094 156.90625 319.480469 157.433594 C 320.464844 157.960938 321.421875 158.535156 322.347656 159.15625 C 323.277344 159.773438 324.171875 160.4375 325.035156 161.148438 C 325.898438 161.855469 326.726562 162.605469 327.515625 163.394531 C 328.304688 164.183594 329.054688 165.011719 329.761719 165.871094 C 330.46875 166.734375 331.132812 167.632812 331.753906 168.558594 C 332.375 169.488281 332.949219 170.445312 333.472656 171.429688 C 334 172.414062 334.476562 173.421875 334.90625 174.453125 C 335.332031 175.484375 335.707031 176.535156 336.03125 177.605469 C 336.355469 178.671875 336.628906 179.753906 336.84375 180.847656 C 337.0625 181.945312 337.226562 183.046875 337.335938 184.160156 C 337.445312 185.269531 337.5 186.382812 337.5 187.5 C 337.5 188.617188 337.445312 189.730469 337.335938 190.839844 C 337.226562 191.953125 337.0625 193.054688 336.84375 194.152344 C 336.628906 195.246094 336.355469 196.328125 336.03125 197.394531 C 335.707031 198.464844 335.332031 199.515625 334.90625 200.546875 C 334.476562 201.578125 334 202.585938 333.472656 203.570312 C 332.949219 204.554688 332.375 205.511719 331.753906 206.441406 C 331.132812 207.367188 330.46875 208.265625 329.761719 209.128906 C 329.054688 209.988281 328.304688 210.816406 327.515625 211.605469 C 326.726562 212.394531 325.898438 213.144531 325.035156 213.851562 C 324.171875 214.5625 323.277344 215.226562 322.347656 215.84375 C 321.421875 216.464844 320.464844 217.039062 319.480469 217.566406 C 318.496094 218.089844 317.488281 218.570312 316.453125 218.996094 C 315.421875 219.421875 314.375 219.796875 313.304688 220.121094 C 312.238281 220.445312 311.15625 220.71875 310.058594 220.9375 C 308.964844 221.152344 307.863281 221.316406 306.75 221.425781 C 305.640625 221.535156 304.527344 221.589844 303.410156 221.589844 L 71.589844 221.589844 C 70.472656 221.589844 69.359375 221.535156 68.25 221.425781 C 67.136719 221.316406 66.035156 221.152344 64.941406 220.9375 C 63.84375 220.71875 62.761719 220.445312 61.695312 220.121094 C 60.625 219.796875 59.578125 219.421875 58.542969 218.996094 C 57.511719 218.570312 56.503906 218.089844 55.519531 217.566406 C 54.535156 217.039062 53.578125 216.464844 52.652344 215.84375 C 51.722656 215.226562 50.828125 214.5625 49.964844 213.851562 C 49.101562 213.144531 48.273438 212.394531 47.484375 211.605469 C 46.695312 210.816406 45.945312 209.988281 45.238281 209.128906 C 44.53125 208.265625 43.867188 207.367188 43.246094 206.441406 C 42.625 205.511719 42.050781 204.554688 41.527344 203.570312 C 41 202.585938 40.523438 201.578125 40.09375 200.546875 C 39.667969 199.515625 39.292969 198.464844 38.96875 197.394531 C 38.644531 196.328125 38.371094 195.246094 38.15625 194.152344 C 37.9375 193.054688 37.773438 191.953125 37.664062 190.839844 C 37.554688 189.730469 37.5 188.617188 37.5 187.5 C 37.5 186.382812 37.554688 185.269531 37.664062 184.160156 C 37.773438 183.046875 37.9375 181.945312 38.15625 180.847656 C 38.371094 179.753906 38.644531 178.671875 38.96875 177.605469 C 39.292969 176.535156 39.667969 175.484375 40.09375 174.453125 C 40.523438 173.421875 41 172.414062 41.527344 171.429688 C 42.050781 170.445312 42.625 169.488281 43.246094 168.558594 C 43.867188 167.632812 44.53125 166.734375 45.238281 165.871094 C 45.945312 165.011719 46.695312 164.183594 47.484375 163.394531 C 48.273438 162.605469 49.101562 161.855469 49.964844 161.148438 C 50.828125 160.4375 51.722656 159.773438 52.652344 159.15625 C 53.578125 158.535156 54.535156 157.960938 55.519531 157.433594 C 56.503906 156.90625 57.511719 156.429688 58.542969 156.003906 C 59.578125 155.578125 60.625 155.199219 61.695312 154.878906 C 62.761719 154.554688 63.84375 154.28125 64.941406 154.0625 C 66.035156 153.847656 67.136719 153.683594 68.25 153.574219 C 69.359375 153.464844 70.472656 153.410156 71.589844 153.410156 Z M 71.589844 153.410156 " fill-opacity="1" fill-rule="nonzero"/></g><g clip-path="url(#id2)"><path fill="#ffffff" d="M 280.703125 207.804688 L 303.539062 207.804688 C 304.234375 207.804688 304.8125 208.382812 304.8125 209.078125 L 304.8125 231.914062 C 304.8125 232.609375 304.234375 233.1875 303.539062 233.1875 L 280.722656 233.1875 C 280.023438 233.1875 279.449219 232.609375 279.449219 231.914062 L 279.449219 209.09375 C 279.433594 208.382812 280.007812 207.804688 280.703125 207.804688 " fill-opacity="1" fill-rule="nonzero"/></g><g clip-path="url(#id3)"><path fill="#333333" d="M 280.703125 232.800781 C 280.214844 232.800781 279.816406 232.402344 279.816406 231.914062 L 279.816406 209.078125 C 279.816406 208.589844 280.214844 208.191406 280.703125 208.191406 L 303.539062 208.191406 C 304.027344 208.191406 304.425781 208.589844 304.425781 209.078125 L 304.425781 231.914062 C 304.425781 232.402344 304.027344 232.800781 303.539062 232.800781 L 280.703125 232.800781 M 280.703125 233.621094 L 303.539062 233.621094 C 304.480469 233.621094 305.246094 232.855469 305.246094 231.914062 L 305.246094 209.078125 C 305.246094 208.136719 304.480469 207.371094 303.539062 207.371094 L 280.703125 207.371094 C 279.761719 207.371094 278.996094 208.136719 278.996094 209.078125 L 278.996094 231.914062 C 278.996094 232.855469 279.761719 233.621094 280.703125 233.621094 " fill-opacity="1" fill-rule="nonzero"/></g><g clip-path="url(#id4)"><path fill="#737373" d="M 290.039062 212.785156 C 290.039062 212.785156 290.039062 212.785156 293.8125 212.785156 C 293.8125 212.785156 293.8125 212.785156 293.8125 218.355469 C 293.8125 218.355469 293.8125 218.355469 299.410156 218.355469 C 299.410156 218.355469 299.410156 218.355469 299.410156 222.1875 C 299.410156 222.1875 299.410156 222.1875 293.8125 222.1875 C 293.8125 222.1875 293.8125 222.1875 293.8125 227.785156 C 293.8125 227.785156 293.8125 227.785156 290.039062 227.785156 C 290.039062 227.785156 290.039062 227.785156 290.039062 222.1875 C 290.039062 222.1875 290.039062 222.1875 284.410156 222.1875 C 284.410156 222.1875 284.410156 222.1875 284.410156 218.355469 C 284.410156 218.355469 284.410156 218.355469 290.039062 218.355469 C 290.039062 218.355469 290.039062 218.355469 290.039062 212.785156 Z M 290.039062 212.785156 " fill-opacity="1" fill-rule="nonzero"/></g><g clip-path="url(#id5)"><path fill="#ffffff" d="M 248.839844 207.804688 L 271.675781 207.804688 C 272.371094 207.804688 272.945312 208.382812 272.945312 209.078125 L 272.945312 231.914062 C 272.945312 232.609375 272.371094 233.1875 271.675781 233.1875 L 248.855469 233.1875 C 248.160156 233.1875 247.585938 232.609375 247.585938 231.914062 L 247.585938 209.09375 C 247.566406 208.382812 248.140625 207.804688 248.839844 207.804688 " fill-opacity="1" fill-rule="nonzero"/></g><g clip-path="url(#id6)"><path fill="#333333" d="M 248.839844 232.800781 C 248.351562 232.800781 247.949219 232.402344 247.949219 231.914062 L 247.949219 209.078125 C 247.949219 208.589844 248.351562 208.191406 248.839844 208.191406 L 271.675781 208.191406 C 272.164062 208.191406 272.5625 208.589844 272.5625 209.078125 L 272.5625 231.914062 C 272.5625 232.402344 272.164062 232.800781 271.675781 232.800781 L 248.839844 232.800781 M 248.839844 233.621094 L 271.675781 233.621094 C 272.617188 233.621094 273.382812 232.855469 273.382812 231.914062 L 273.382812 209.078125 C 273.382812 208.136719 272.617188 207.371094 271.675781 207.371094 L 248.839844 207.371094 C 247.898438 207.371094 247.132812 208.136719 247.132812 209.078125 L 247.132812 231.914062 C 247.132812 232.855469 247.898438 233.621094 248.839844 233.621094 " fill-opacity="1" fill-rule="nonzero"/></g><g clip-path="url(#id7)"><path fill="#737373" d="M 252.601562 218.933594 L 267.492188 218.933594 L 267.492188 221.925781 L 252.601562 221.925781 L 252.601562 218.933594 " fill-opacity="1" fill-rule="nonzero"/></g><g fill="#5ce1e6" fill-opacity="1"><g transform="translate(53.422635, 198.374987)"><g><path d="M 10.890625 -0.484375 L 10.890625 -21.34375 L 3.703125 -21.34375 C 3.378906 -21.34375 3.21875 -21.507812 3.21875 -21.84375 L 3.21875 -23.515625 C 3.21875 -23.847656 3.378906 -24.015625 3.703125 -24.015625 L 20.71875 -24.015625 C 21.039062 -24.015625 21.203125 -23.847656 21.203125 -23.515625 L 21.203125 -21.84375 C 21.203125 -21.507812 21.039062 -21.34375 20.71875 -21.34375 L 13.546875 -21.34375 L 13.546875 -0.484375 C 13.546875 -0.347656 13.492188 -0.234375 13.390625 -0.140625 C 13.285156 -0.046875 13.175781 0 13.0625 0 L 11.375 0 C 11.050781 0 10.890625 -0.160156 10.890625 -0.484375 Z M 10.890625 -0.484375 "/></g></g></g><g fill="#5ce1e6" fill-opacity="1"><g transform="translate(77.812122, 198.374987)"><g><path d="M 18.546875 -0.484375 L 18.546875 -10.671875 L 5.84375 -10.671875 L 5.84375 -0.484375 C 5.84375 -0.160156 5.679688 0 5.359375 0 L 3.703125 0 C 3.378906 0 3.21875 -0.160156 3.21875 -0.484375 L 3.21875 -23.515625 C 3.21875 -23.847656 3.378906 -24.015625 3.703125 -24.015625 L 5.359375 -24.015625 C 5.679688 -24.015625 5.84375 -23.847656 5.84375 -23.515625 L 5.84375 -13.328125 L 18.546875 -13.328125 L 18.546875 -23.515625 C 18.546875 -23.847656 18.710938 -24.015625 19.046875 -24.015625 L 20.71875 -24.015625 C 21.039062 -24.015625 21.203125 -23.847656 21.203125 -23.515625 L 21.203125 -0.484375 C 21.203125 -0.160156 21.039062 0 20.71875 0 L 19.046875 0 C 18.710938 0 18.546875 -0.160156 18.546875 -0.484375 Z M 18.546875 -0.484375 "/></g></g></g><g fill="#5ce1e6" fill-opacity="1"><g transform="translate(102.166625, 198.374987)"><g><path d="M 3.75 -0.484375 L 3.75 -23.515625 C 3.75 -23.847656 3.910156 -24.015625 4.234375 -24.015625 L 20.546875 -24.015625 C 20.867188 -24.015625 21.03125 -23.847656 21.03125 -23.515625 L 21.03125 -21.84375 C 21.03125 -21.507812 20.867188 -21.34375 20.546875 -21.34375 L 6.375 -21.34375 L 6.375 -13.328125 L 18.65625 -13.328125 C 18.769531 -13.328125 18.878906 -13.273438 18.984375 -13.171875 C 19.085938 -13.066406 19.140625 -12.957031 19.140625 -12.84375 L 19.140625 -11.171875 C 19.140625 -11.023438 19.085938 -10.90625 18.984375 -10.8125 C 18.878906 -10.71875 18.769531 -10.671875 18.65625 -10.671875 L 6.375 -10.671875 L 6.375 -2.65625 L 20.546875 -2.65625 C 20.679688 -2.65625 20.796875 -2.601562 20.890625 -2.5 C 20.984375 -2.394531 21.03125 -2.285156 21.03125 -2.171875 L 21.03125 -0.484375 C 21.03125 -0.160156 20.867188 0 20.546875 0 L 4.234375 0 C 3.910156 0 3.75 -0.160156 3.75 -0.484375 Z M 3.75 -0.484375 "/></g></g></g><g fill="#5ce1e6" fill-opacity="1"><g transform="translate(126.521127, 198.374987)"><g/></g></g><g fill="#5ce1e6" fill-opacity="1"><g transform="translate(150.875629, 198.374987)"><g><path d="M 21.203125 -17.296875 C 21.203125 -16.960938 21.039062 -16.796875 20.71875 -16.796875 L 19.046875 -16.796875 C 18.710938 -16.796875 18.546875 -16.960938 18.546875 -17.296875 L 18.546875 -18.9375 C 18.523438 -19.613281 18.28125 -20.179688 17.8125 -20.640625 C 17.34375 -21.109375 16.769531 -21.34375 16.09375 -21.34375 L 8.296875 -21.34375 C 7.617188 -21.34375 7.039062 -21.101562 6.5625 -20.625 C 6.082031 -20.15625 5.84375 -19.582031 5.84375 -18.90625 L 5.84375 -5.109375 C 5.84375 -4.429688 6.082031 -3.851562 6.5625 -3.375 C 7.039062 -2.894531 7.617188 -2.65625 8.296875 -2.65625 L 16.09375 -2.65625 C 16.769531 -2.65625 17.34375 -2.882812 17.8125 -3.34375 C 18.28125 -3.800781 18.523438 -4.367188 18.546875 -5.046875 L 18.546875 -6.71875 C 18.546875 -6.832031 18.59375 -6.941406 18.6875 -7.046875 C 18.78125 -7.148438 18.898438 -7.203125 19.046875 -7.203125 L 20.71875 -7.203125 C 20.863281 -7.203125 20.976562 -7.148438 21.0625 -7.046875 C 21.15625 -6.941406 21.203125 -6.832031 21.203125 -6.71875 L 21.203125 -5.046875 C 21.203125 -4.335938 21.0625 -3.679688 20.78125 -3.078125 C 20.507812 -2.472656 20.144531 -1.941406 19.6875 -1.484375 C 19.226562 -1.035156 18.691406 -0.675781 18.078125 -0.40625 C 17.460938 -0.132812 16.800781 0 16.09375 0 L 8.296875 0 C 7.597656 0 6.9375 -0.132812 6.3125 -0.40625 C 5.695312 -0.675781 5.160156 -1.035156 4.703125 -1.484375 C 4.253906 -1.941406 3.894531 -2.484375 3.625 -3.109375 C 3.351562 -3.742188 3.21875 -4.410156 3.21875 -5.109375 L 3.21875 -18.90625 C 3.21875 -19.601562 3.351562 -20.257812 3.625 -20.875 C 3.894531 -21.5 4.253906 -22.039062 4.703125 -22.5 C 5.160156 -22.96875 5.695312 -23.335938 6.3125 -23.609375 C 6.9375 -23.878906 7.597656 -24.015625 8.296875 -24.015625 L 16.09375 -24.015625 C 16.800781 -24.015625 17.460938 -23.878906 18.078125 -23.609375 C 18.691406 -23.335938 19.226562 -22.972656 19.6875 -22.515625 C 20.144531 -22.066406 20.507812 -21.53125 20.78125 -20.90625 C 21.0625 -20.289062 21.203125 -19.632812 21.203125 -18.9375 Z M 21.203125 -17.296875 "/></g></g></g><g fill="#5ce1e6" fill-opacity="1"><g transform="translate(175.265116, 198.374987)"><g><path d="M 8.296875 0 C 7.597656 0 6.9375 -0.132812 6.3125 -0.40625 C 5.695312 -0.675781 5.160156 -1.035156 4.703125 -1.484375 C 4.253906 -1.941406 3.894531 -2.484375 3.625 -3.109375 C 3.351562 -3.742188 3.21875 -4.410156 3.21875 -5.109375 L 3.21875 -18.90625 C 3.21875 -19.601562 3.351562 -20.257812 3.625 -20.875 C 3.894531 -21.5 4.253906 -22.039062 4.703125 -22.5 C 5.160156 -22.96875 5.695312 -23.335938 6.3125 -23.609375 C 6.9375 -23.878906 7.597656 -24.015625 8.296875 -24.015625 L 16.09375 -24.015625 C 16.800781 -24.015625 17.460938 -23.878906 18.078125 -23.609375 C 18.691406 -23.335938 19.234375 -22.96875 19.703125 -22.5 C 20.171875 -22.039062 20.535156 -21.5 20.796875 -20.875 C 21.066406 -20.257812 21.203125 -19.601562 21.203125 -18.90625 L 21.203125 -5.109375 C 21.203125 -4.410156 21.066406 -3.742188 20.796875 -3.109375 C 20.535156 -2.484375 20.171875 -1.941406 19.703125 -1.484375 C 19.234375 -1.035156 18.691406 -0.675781 18.078125 -0.40625 C 17.460938 -0.132812 16.800781 0 16.09375 0 Z M 8.296875 -21.34375 C 7.617188 -21.34375 7.039062 -21.101562 6.5625 -20.625 C 6.082031 -20.15625 5.84375 -19.582031 5.84375 -18.90625 L 5.84375 -5.109375 C 5.84375 -4.429688 6.082031 -3.851562 6.5625 -3.375 C 7.039062 -2.894531 7.617188 -2.65625 8.296875 -2.65625 L 16.09375 -2.65625 C 16.769531 -2.65625 17.347656 -2.894531 17.828125 -3.375 C 18.304688 -3.851562 18.546875 -4.429688 18.546875 -5.109375 L 18.546875 -18.90625 C 18.546875 -19.582031 18.304688 -20.15625 17.828125 -20.625 C 17.347656 -21.101562 16.769531 -21.34375 16.09375 -21.34375 Z M 8.296875 -21.34375 "/></g></g></g><g fill="#5ce1e6" fill-opacity="1"><g transform="translate(199.654603, 198.374987)"><g><path d="M 3.1875 -5.109375 L 3.1875 -23.515625 C 3.1875 -23.660156 3.238281 -23.78125 3.34375 -23.875 C 3.445312 -23.96875 3.554688 -24.015625 3.671875 -24.015625 L 5.359375 -24.015625 C 5.679688 -24.015625 5.84375 -23.847656 5.84375 -23.515625 L 5.84375 -5.109375 C 5.84375 -4.429688 6.082031 -3.851562 6.5625 -3.375 C 7.039062 -2.894531 7.617188 -2.65625 8.296875 -2.65625 L 16.09375 -2.65625 C 16.769531 -2.65625 17.347656 -2.894531 17.828125 -3.375 C 18.304688 -3.851562 18.546875 -4.429688 18.546875 -5.109375 L 18.546875 -23.515625 C 18.546875 -23.847656 18.710938 -24.015625 19.046875 -24.015625 L 20.71875 -24.015625 C 21.039062 -24.015625 21.203125 -23.847656 21.203125 -23.515625 L 21.203125 -5.109375 C 21.203125 -4.410156 21.066406 -3.742188 20.796875 -3.109375 C 20.535156 -2.484375 20.171875 -1.941406 19.703125 -1.484375 C 19.234375 -1.035156 18.691406 -0.675781 18.078125 -0.40625 C 17.460938 -0.132812 16.800781 0 16.09375 0 L 8.296875 0 C 7.597656 0 6.9375 -0.132812 6.3125 -0.40625 C 5.695312 -0.675781 5.15625 -1.035156 4.6875 -1.484375 C 4.21875 -1.941406 3.847656 -2.484375 3.578125 -3.109375 C 3.316406 -3.742188 3.1875 -4.410156 3.1875 -5.109375 Z M 3.1875 -5.109375 "/></g></g></g><g fill="#5ce1e6" fill-opacity="1"><g transform="translate(224.04409, 198.374987)"><g><path d="M 18.546875 -0.484375 L 18.546875 -10.53125 L 5.84375 -21.03125 L 5.84375 -0.484375 C 5.84375 -0.160156 5.679688 0 5.359375 0 L 3.671875 0 C 3.554688 0 3.445312 -0.046875 3.34375 -0.140625 C 3.238281 -0.234375 3.1875 -0.347656 3.1875 -0.484375 L 3.1875 -23.515625 C 3.1875 -23.660156 3.238281 -23.78125 3.34375 -23.875 C 3.445312 -23.96875 3.554688 -24.015625 3.671875 -24.015625 L 6.015625 -24.015625 C 6.347656 -24.015625 6.640625 -23.90625 6.890625 -23.6875 L 18.546875 -14.0625 L 18.546875 -23.515625 C 18.546875 -23.847656 18.710938 -24.015625 19.046875 -24.015625 L 20.71875 -24.015625 C 21.039062 -24.015625 21.203125 -23.847656 21.203125 -23.515625 L 21.203125 -0.484375 C 21.203125 -0.160156 21.039062 0 20.71875 0 L 19.046875 0 C 18.710938 0 18.546875 -0.160156 18.546875 -0.484375 Z M 18.546875 -0.484375 "/></g></g></g><g fill="#5ce1e6" fill-opacity="1"><g transform="translate(248.433565, 198.374987)"><g><path d="M 10.890625 -0.484375 L 10.890625 -21.34375 L 3.703125 -21.34375 C 3.378906 -21.34375 3.21875 -21.507812 3.21875 -21.84375 L 3.21875 -23.515625 C 3.21875 -23.847656 3.378906 -24.015625 3.703125 -24.015625 L 20.71875 -24.015625 C 21.039062 -24.015625 21.203125 -23.847656 21.203125 -23.515625 L 21.203125 -21.84375 C 21.203125 -21.507812 21.039062 -21.34375 20.71875 -21.34375 L 13.546875 -21.34375 L 13.546875 -0.484375 C 13.546875 -0.347656 13.492188 -0.234375 13.390625 -0.140625 C 13.285156 -0.046875 13.175781 0 13.0625 0 L 11.375 0 C 11.050781 0 10.890625 -0.160156 10.890625 -0.484375 Z M 10.890625 -0.484375 "/></g></g></g><g fill="#5ce1e6" fill-opacity="1"><g transform="translate(272.823052, 198.374987)"><g><path d="M 3.75 -0.484375 L 3.75 -23.515625 C 3.75 -23.847656 3.910156 -24.015625 4.234375 -24.015625 L 20.546875 -24.015625 C 20.867188 -24.015625 21.03125 -23.847656 21.03125 -23.515625 L 21.03125 -21.84375 C 21.03125 -21.507812 20.867188 -21.34375 20.546875 -21.34375 L 6.375 -21.34375 L 6.375 -13.328125 L 18.65625 -13.328125 C 18.769531 -13.328125 18.878906 -13.273438 18.984375 -13.171875 C 19.085938 -13.066406 19.140625 -12.957031 19.140625 -12.84375 L 19.140625 -11.171875 C 19.140625 -11.023438 19.085938 -10.90625 18.984375 -10.8125 C 18.878906 -10.71875 18.769531 -10.671875 18.65625 -10.671875 L 6.375 -10.671875 L 6.375 -2.65625 L 20.546875 -2.65625 C 20.679688 -2.65625 20.796875 -2.601562 20.890625 -2.5 C 20.984375 -2.394531 21.03125 -2.285156 21.03125 -2.171875 L 21.03125 -0.484375 C 21.03125 -0.160156 20.867188 0 20.546875 0 L 4.234375 0 C 3.910156 0 3.75 -0.160156 3.75 -0.484375 Z M 3.75 -0.484375 "/></g></g></g><g fill="#5ce1e6" fill-opacity="1"><g transform="translate(297.177566, 198.374987)"><g><path d="M 17.890625 -0.453125 L 13.328125 -10.671875 L 5.84375 -10.671875 L 5.84375 -0.484375 C 5.84375 -0.160156 5.679688 0 5.359375 0 L 3.703125 0 C 3.378906 0 3.21875 -0.160156 3.21875 -0.484375 L 3.21875 -23.515625 C 3.21875 -23.847656 3.378906 -24.015625 3.703125 -24.015625 L 16.09375 -24.015625 C 16.800781 -24.015625 17.460938 -23.878906 18.078125 -23.609375 C 18.691406 -23.335938 19.234375 -22.96875 19.703125 -22.5 C 20.171875 -22.039062 20.535156 -21.5 20.796875 -20.875 C 21.066406 -20.257812 21.203125 -19.601562 21.203125 -18.90625 L 21.203125 -15.78125 C 21.203125 -14.632812 20.859375 -13.613281 20.171875 -12.71875 C 19.484375 -11.820312 18.59375 -11.210938 17.5 -10.890625 L 16.3125 -10.53125 L 20.796875 -0.453125 C 20.859375 -0.335938 20.859375 -0.234375 20.796875 -0.140625 C 20.742188 -0.046875 20.648438 0 20.515625 0 L 18.578125 0 C 18.441406 0 18.300781 -0.046875 18.15625 -0.140625 C 18.019531 -0.234375 17.929688 -0.335938 17.890625 -0.453125 Z M 5.84375 -13.328125 L 16.09375 -13.328125 C 16.769531 -13.328125 17.347656 -13.566406 17.828125 -14.046875 C 18.304688 -14.523438 18.546875 -15.101562 18.546875 -15.78125 L 18.546875 -18.90625 C 18.546875 -19.582031 18.304688 -20.15625 17.828125 -20.625 C 17.347656 -21.101562 16.769531 -21.34375 16.09375 -21.34375 L 5.84375 -21.34375 Z M 5.84375 -13.328125 "/></g></g></g></svg>